<svg width="2400" height="1400" viewBox="0 0 2400 1400" fill="none" xmlns="http://www.w3.org/2000/svg">
  <defs>
    <linearGradient id="g0" x1="0" y1="0" x2="2400" y2="1400" gradientUnits="userSpaceOnUse">
      <stop stop-color="#050B18"/>
      <stop offset="0.55" stop-color="#0A1633"/>
      <stop offset="1" stop-color="#070F24"/>
    </linearGradient>
    <radialGradient id="r1" cx="0" cy="0" r="1" gradientUnits="userSpaceOnUse" gradientTransform="translate(500 250) rotate(56) scale(1100 780)">
      <stop stop-color="white" stop-opacity="0.16"/>
      <stop offset="1" stop-color="white" stop-opacity="0"/>
    </radialGradient>
    <radialGradient id="r2" cx="0" cy="0" r="1" gradientUnits="userSpaceOnUse" gradientTransform="translate(1900 200) rotate(120) scale(980 680)">
      <stop stop-color="#58A0FF" stop-opacity="0.18"/>
      <stop offset="1" stop-color="#58A0FF" stop-opacity="0"/>
    </radialGradient>
    <filter id="blur" x="-20%" y="-20%" width="140%" height="140%">
      <feGaussianBlur stdDeviation="24"/>
    </filter>
    <linearGradient id="plane" x1="400" y1="820" x2="2000" y2="540" gradientUnits="userSpaceOnUse">
      <stop stop-color="white" stop-opacity="0.16"/>
      <stop offset="0.55" stop-color="white" stop-opacity="0.06"/>
      <stop offset="1" stop-color="white" stop-opacity="0"/>
    </linearGradient>
  </defs>

  <rect width="2400" height="1400" fill="url(#g0)"/>
  <rect width="2400" height="1400" fill="url(#r1)"/>
  <rect width="2400" height="1400" fill="url(#r2)"/>

  <g opacity="0.55" filter="url(#blur)">
    <path d="M200 1140 C 520 980, 820 920, 1180 760 C 1500 620, 1740 550, 2200 410" stroke="white" stroke-opacity="0.18" stroke-width="10" stroke-linecap="round"/>
    <path d="M240 1060 C 520 910, 840 850, 1210 700 C 1540 560, 1810 485, 2260 350" stroke="#58A0FF" stroke-opacity="0.14" stroke-width="8" stroke-linecap="round"/>
  </g>

  <!-- Minimal aircraft silhouette -->
  <g opacity="0.9">
    <path d="M650 860 L1210 742 L1282 708 L2000 540 L2012 566 L1300 744 L1520 854 L1508 888 L1240 786 L892 930 L650 860Z" fill="url(#plane)"/>
    <path d="M980 860 L1112 812 L1312 1040 L1278 1058 L980 860Z" fill="white" fill-opacity="0.05"/>
  </g>

  <!-- Subtle grid dots -->
  <g opacity="0.22">
    <circle cx="340" cy="260" r="2" fill="white"/>
    <circle cx="520" cy="360" r="2" fill="white"/>
    <circle cx="700" cy="460" r="2" fill="white"/>
    <circle cx="880" cy="560" r="2" fill="white"/>
    <circle cx="1060" cy="660" r="2" fill="white"/>
    <circle cx="1240" cy="760" r="2" fill="white"/>
    <circle cx="1420" cy="860" r="2" fill="white"/>
    <circle cx="1600" cy="960" r="2" fill="white"/>
    <circle cx="1780" cy="1060" r="2" fill="white"/>
    <circle cx="1960" cy="1160" r="2" fill="white"/>
  </g>
</svg>

